<svg width="44" height="44" viewBox="0 0 44 44" fill="none" xmlns="http://www.w3.org/2000/svg">
<path fill-rule="evenodd" clip-rule="evenodd" d="M44 0H0V44H44V0ZM16.4852 39.6C16.1493 39.5363 15.8158 39.467 15.4849 39.3923C15.405 39.1375 15.3656 38.8298 15.3656 38.5233V34.6749H12.054C10.2663 34.6749 8.60933 33.9969 7.88117 32.7507C7.62107 32.3405 7.42739 31.8633 7.22356 31.361C6.75252 30.2002 6.22722 28.9058 4.70252 27.997C4.03974 27.5444 4.56951 27.0917 5.29767 27.1476C6.68861 27.4866 7.81354 28.2801 8.87309 29.4666C9.93264 30.6551 10.397 30.9382 12.3831 30.9382C13.3097 30.9382 14.766 30.8823 16.0916 30.7109C16.8197 29.1257 18.0776 27.7119 19.6016 27.0339C10.7284 26.1287 6.49023 22.3939 6.49023 17.3012C6.49023 15.0939 7.61516 13.0002 9.47049 11.1896C8.87534 9.43489 8.07955 5.81377 9.73651 4.39999C13.7109 4.39999 16.0938 6.60734 16.689 7.17169C18.6751 6.60541 20.8618 6.26641 23.1116 6.26641C25.4291 6.26641 27.5482 6.60541 29.5343 7.17169C30.1295 6.60541 32.5146 4.39999 36.4868 4.39999C38.0761 5.75791 37.3479 9.43489 36.6851 11.1896C38.5405 12.9443 39.6 15.0939 39.6 17.3012C39.6 22.3939 35.4272 26.1287 26.6217 26.9203C29.0722 27.9951 30.7945 31.0499 30.7945 33.3131V38.4674C30.7945 38.5522 30.7782 38.6369 30.7618 38.7216L30.7618 38.7217C30.7535 38.765 30.7451 38.8083 30.7389 38.8515C29.7504 39.1523 28.7343 39.403 27.695 39.6H16.4852Z" fill="#F8A559"/>
</svg>
