<svg width="44" height="44" viewBox="0 0 44 44" fill="none" xmlns="http://www.w3.org/2000/svg">
<path fill-rule="evenodd" clip-rule="evenodd" d="M44 0H0V44H44V0ZM11.1692 4.675H32.8308C36.5914 4.675 39.6 7.66003 39.6 11.3913V32.8837C39.6 36.615 36.5914 39.6 32.8308 39.6H11.1692C7.40853 39.6 4.4 36.615 4.4 32.8837V11.3914C4.4 7.66003 7.40853 4.675 11.1692 4.675ZM35.5384 8.70481H34.7863H29.5213V14.6749H35.5384V8.70481ZM22 16.0182C20.0445 16.0182 18.0889 17.0629 17.0359 18.5555C16.2838 19.6002 15.8325 20.7942 15.8325 22.1375C15.8325 25.5703 18.6906 28.2568 22 28.2568C25.3094 28.2568 28.1675 25.5703 28.1675 22.1375C28.1675 20.7942 27.7162 19.6002 26.9641 18.5555C25.9111 17.0629 23.9556 16.0182 22 16.0182ZM32.8308 36.1672C34.6359 36.1672 36.1402 34.6747 36.1402 32.8837L36.1401 18.5555H30.8752C31.3264 19.6002 31.6273 20.9435 31.6273 22.1375C31.6273 27.3613 27.2649 31.6896 22 31.6896C16.735 31.6896 12.3727 27.3613 12.3727 22.1375C12.3727 20.9435 12.6735 19.6002 13.1248 18.5555H7.85982V32.8837C7.85982 34.6747 9.36412 36.1672 11.1692 36.1672H32.8308Z" fill="#F8A559"/>
</svg>
