<svg width="44" height="44" viewBox="0 0 44 44" fill="none" xmlns="http://www.w3.org/2000/svg">
<g clip-path="url(#clip0)">
<path fill-rule="evenodd" clip-rule="evenodd" d="M368 0H0V368H368V0ZM12.3905 15.849V39.5992H4.84477V15.849H12.3905ZM12.8879 8.50393C12.8879 10.7831 11.25 12.6068 8.61923 12.6068L8.61864 12.6066H8.56978C6.03726 12.6066 4.4 10.7829 4.4 8.50372C4.4 6.17284 6.08671 4.4 8.66926 4.4C11.25 4.4 12.8386 6.17284 12.8879 8.50393ZM24.1124 39.5992H16.5672L16.567 39.6C16.567 39.6 16.6661 18.0778 16.5676 15.8498H24.113V19.2115C25.116 17.5936 26.9111 15.2921 30.9136 15.2921C35.8779 15.2921 39.6 18.6868 39.6 25.9815V39.5992H32.055V26.8948C32.055 23.7017 30.9624 21.524 28.2327 21.524C26.1477 21.524 24.9062 22.9926 24.361 24.4115C24.1616 24.9178 24.1124 25.6285 24.1124 26.3374V39.5992Z" fill="#F8A559"/>
</g>
<defs>
<clipPath id="clip0">
<rect width="44" height="44" fill="white"/>
</clipPath>
</defs>
</svg>
