<svg width="200" height="88" viewBox="0 0 200 88" fill="none" xmlns="http://www.w3.org/2000/svg">
<path d="M20.4219 16.25L28.8125 36.3281L37.2344 16.25H39.7969V39H37.875V29.0938L38.0312 18.9375L29.5625 39H28.0781L19.6406 19.0156L19.7969 29.0312V39H17.875V16.25H20.4219ZM61.325 32.625H50.9969L48.6531 39H46.6375L55.2469 16.25H57.075L65.6844 39H63.6844L61.325 32.625ZM51.5906 30.9844H60.7156L56.1531 18.5938L51.5906 30.9844ZM80.7438 29.5312H74.1344V39H72.1969V16.25H79.5875C82.0146 16.25 83.9104 16.8385 85.275 18.0156C86.6396 19.1927 87.3219 20.8385 87.3219 22.9531C87.3219 24.4115 86.8948 25.6979 86.0406 26.8125C85.1865 27.9271 84.0406 28.6979 82.6031 29.125L88.2906 38.7969V39H86.2438L80.7438 29.5312ZM74.1344 27.8906H80.025C81.6396 27.8906 82.9365 27.4323 83.9156 26.5156C84.8948 25.599 85.3844 24.4115 85.3844 22.9531C85.3844 21.349 84.874 20.1042 83.8531 19.2188C82.8323 18.3333 81.4 17.8906 79.5563 17.8906H74.1344V27.8906ZM100.881 27.7031L97.6781 30.8594V39H95.7562V16.25H97.6781V28.5156L109.334 16.25H111.756L102.225 26.375L112.491 39H110.147L100.881 27.7031Z" fill="white"/>
<rect x="1" y="1" width="198" height="86" stroke="white" stroke-width="2"/>
<path d="M49.875 70V47.25H56.2344C58.099 47.25 59.7708 47.6771 61.25 48.5312C62.7292 49.375 63.8802 50.5885 64.7031 52.1719C65.5365 53.7552 65.9531 55.5573 65.9531 57.5781V59.6719C65.9531 61.7031 65.5417 63.5052 64.7188 65.0781C63.8958 66.651 62.7344 67.8646 61.2344 68.7188C59.7448 69.5729 58.0312 70 56.0938 70H49.875ZM51.7969 48.8906V68.375H56.1094C58.5052 68.375 60.4271 67.5833 61.875 66C63.3229 64.4062 64.0469 62.2552 64.0469 59.5469V57.5469C64.0469 54.9323 63.3333 52.8385 61.9062 51.2656C60.4792 49.6927 58.599 48.901 56.2656 48.8906H51.7969ZM86.6063 59.0938H75.9656V68.375H88.2V70H74.0438V47.25H88.1219V48.8906H75.9656V57.4688H86.6063V59.0938ZM107.744 63.625H97.4156L95.0719 70H93.0563L101.666 47.25H103.494L112.103 70H110.103L107.744 63.625ZM98.0094 61.9844H107.134L102.572 49.5938L98.0094 61.9844ZM127.162 60.5312H120.553V70H118.616V47.25H126.006C128.433 47.25 130.329 47.8385 131.694 49.0156C133.058 50.1927 133.741 51.8385 133.741 53.9531C133.741 55.4115 133.314 56.6979 132.459 57.8125C131.605 58.9271 130.459 59.6979 129.022 60.125L134.709 69.7969V70H132.662L127.162 60.5312ZM120.553 58.8906H126.444C128.058 58.8906 129.355 58.4323 130.334 57.5156C131.314 56.599 131.803 55.4115 131.803 53.9531C131.803 52.349 131.293 51.1042 130.272 50.2188C129.251 49.3333 127.819 48.8906 125.975 48.8906H120.553V58.8906ZM158.988 59.8594C158.988 61.9531 158.623 63.7917 157.894 65.375C157.175 66.9583 156.144 68.1771 154.8 69.0312C153.456 69.8854 151.904 70.3125 150.144 70.3125C147.488 70.3125 145.342 69.3646 143.706 67.4688C142.071 65.5625 141.253 62.9948 141.253 59.7656V57.4219C141.253 55.349 141.618 53.5156 142.347 51.9219C143.086 50.3177 144.128 49.0885 145.472 48.2344C146.816 47.3698 148.363 46.9375 150.113 46.9375C151.863 46.9375 153.404 47.3594 154.738 48.2031C156.081 49.0469 157.118 50.2396 157.847 51.7812C158.576 53.3229 158.956 55.1094 158.988 57.1406V59.8594ZM157.066 57.3906C157.066 54.651 156.446 52.5052 155.206 50.9531C153.967 49.401 152.269 48.625 150.113 48.625C147.998 48.625 146.31 49.4062 145.05 50.9688C143.8 52.5208 143.175 54.6927 143.175 57.4844V59.8594C143.175 62.5573 143.8 64.6979 145.05 66.2812C146.3 67.8542 147.998 68.6406 150.144 68.6406C152.321 68.6406 154.019 67.8646 155.238 66.3125C156.456 64.75 157.066 62.5781 157.066 59.7969V57.3906ZM167.516 68.375H181.562V70H165.188V68.5469L178.688 48.8906H165.594V47.25H181.062V48.625L167.516 68.375Z" fill="white"/>
</svg>
